#!OML:ASF H:\Terrain\Patient Classification 1\Walking\liu\liu.ASF
:FULLY-SPECIFIED
:DEGREES
421
root 10.092300 16.754400 23.371500 8.164130 0.340079 -4.727430
lowerback -87.741501 27.631399 12.244101
upperback -17.994600 34.901299 21.730700
thorax 29.821602 17.417299 19.503599
lowerneck -194.867996 -69.568100 -146.683990
upperneck 219.234009 -90.044403 142.777008
head 117.761002 -36.534698 63.444298
rclavicle -0.000000 -0.000000
rhumerus -361.808014 100.838005 -886.768066
rradius 330.313995
rwrist -141.028992
rhand -290.391998 -246.137009
rfingers 71.250198
rthumb -23.896000 -545.800049
lclavicle -0.000000 -0.000000
lhumerus -510.294006 -71.515999 925.794983
lradius 224.522003
lwrist 8.846180
lhand -71.872299 -225.429001
lfingers 71.250198
lthumb 186.907013 65.791504
rfemur 248.602997 30.275200 283.195984
rtibia 0.000000
rfoot 94.180099 39.105103
rtoes -223.075012
lfemur -441.295013 24.670300 -186.683014
ltibia 344.533997
lfoot 11.291900 77.796600
ltoes 19.208500
422
root 10.122300 16.775900 23.530899 8.124530 0.487934 -4.674200
lowerback -86.874397 26.394899 12.884001
upperback -18.909300 33.262100 21.179901
thorax 28.499802 16.612600 18.315800
lowerneck -197.259003 -70.776505 -145.983002
upperneck 223.038010 -91.674606 141.161011
head 119.842995 -37.299301 62.532803
rclavicle -0.000000 -0.000000
rhumerus -368.587982 100.150002 -889.988037
rradius 325.914978
rwrist -144.186005
rhand -285.666992 -258.213013
rfingers 71.250198
rthumb -19.332699 -557.923035
lclavicle -0.000000 -0.000000
lhumerus -504.617004 -65.117996 918.808960
lradius 218.917007
lwrist -2.298170
lhand -74.504700 -228.712997
lfingers 71.250198
lthumb 184.375000 62.748901
rfemur 222.017990 27.828600 280.050995
rtibia 57.774300
rfoot 95.813797 40.379299
rtoes -193.652008
lfemur -437.911987 21.250401 -187.176987
ltibia 350.500000
lfoot 2.386110 77.138298
ltoes 18.571600
423
root 10.158700 16.818800 23.700100 8.035590 0.462645 -4.109360
lowerback -84.295197 25.058802 8.094860
upperback -21.135700 32.059101 20.048599
thorax 24.594700 16.010099 19.481400
lowerneck -190.147003 -67.371300 -144.743988
upperneck 221.580994 -87.474503 139.382004
head 116.955002 -35.778099 62.353901
rclavicle -0.000000 -0.000000
rhumerus -377.778992 97.388901 -890.289978
rradius 322.989014
rwrist -139.035995
rhand -271.842010 -288.221008
rfingers 71.250198
rthumb -5.980290 -588.010010
lclavicle -0.000000 -0.000000
lhumerus -501.130005 -53.266502 909.638000
lradius 214.356003
lwrist -17.864601
lhand -66.306999 -223.832001
lfingers 71.250198
lthumb 192.259995 66.864403
rfemur 195.102997 26.753199 268.662994
rtibia 115.820000
rfoot 104.697998 31.619301
rtoes -77.549400
lfemur -430.842010 17.956001 -193.502014
ltibia 352.713989
lfoot -5.296260 76.181801
ltoes 34.334198
424
root 10.196200 16.849501 23.863701 7.882440 0.264051 -3.143260
lowerback -73.186401 25.857201 0.838581
upperback -29.725800 34.109501 16.527100
thorax 9.324890 17.149799 19.230700
lowerneck -177.893997 -65.923798 -147.451996
upperneck 222.772003 -86.707001 140.430008
head 115.032997 -36.016499 63.531197
rclavicle -0.000000 -0.000000
rhumerus -398.408020 87.884995 -890.408020
rradius 322.375977
rwrist -131.497009
rhand -260.804993 -316.718018
rfingers 71.250198
rthumb 4.680370 -616.510010
lclavicle -0.000000 -0.000000
lhumerus -507.910004 -51.196297 906.044006
lradius 211.042999
lwrist -25.252701
lhand -54.070900 -215.793991
lfingers 71.250198
lthumb 204.022003 73.688004
rfemur 174.539001 14.638000 251.972015
rtibia 161.427994
rfoot 113.969002 49.707298
rtoes -138.567993
lfemur -421.683990 14.972800 -204.304016
ltibia 352.559021
lfoot -11.749801 77.743805
ltoes 40.297298
425
root 10.230400 16.878201 24.027201 7.852980 -0.008902 -2.616020
lowerback -75.106102 26.689602 -2.245160
upperback -29.561501 35.434502 14.641100
thorax 10.446200 17.811100 19.223501
lowerneck -176.024002 -65.932602 -147.862991
upperneck 221.872009 -86.400101 139.115997
head 114.216995 -36.127899 63.106800
rclavicle 0.000000 -0.000000
rhumerus -403.997009 83.150192 -889.611938
rradius 317.944000
rwrist -129.274002
rhand -261.171997 -309.641998
rfingers 71.250198
rthumb 4.325270 -609.434998
lclavicle 0.000000 -0.000000
lhumerus -499.994995 -49.638000 903.248962
lradius 207.261017
lwrist -28.465900
lhand -50.104599 -212.968994
lfingers 71.250198
lthumb 207.834000 76.100601
rfemur 155.872009 8.459480 241.079010
rtibia 202.187012
rfoot 118.964996 59.861698
rtoes -162.024002
lfemur -413.260010 15.368800 -211.205994
ltibia 350.830017
lfoot -17.280399 78.621704
ltoes 22.161901
426
root 10.266000 16.903601 24.190599 7.860530 -0.365383 -2.140790
lowerback -78.908096 27.178801 -5.402800
upperback -23.754200 36.263699 13.389501
thorax 18.395599 18.127701 20.175301
lowerneck -189.943008 -67.654503 -147.420990
upperneck 222.317017 -86.567093 137.328995
head 117.056999 -35.844601 62.193398
rclavicle -0.000000 -0.000000
rhumerus -397.156006 82.776604 -887.938965
rradius 312.092010
rwrist -130.645004
rhand -266.618011 -289.501007
rfingers 71.250198
rthumb -0.934769 -589.299011
lclavicle -0.000000 -0.000000
lhumerus -480.845978 -45.213097 899.353027
lradius 203.502014
lwrist -33.416000
lhand -56.751099 -214.923004
lfingers 71.250198
lthumb 201.446991 74.833000
rfemur 138.686005 4.629340 230.968002
rtibia 239.936005
rfoot 128.292999 61.304302
rtoes -147.658005
lfemur -405.495972 17.974899 -218.339005
ltibia 349.338013
lfoot -22.651501 77.715401
ltoes 27.549900
